<svg width="131" height="66" viewBox="0 0 131 66" fill="none" xmlns="http://www.w3.org/2000/svg">
<rect x="1.39116" y="21.6373" width="102.706" height="43.7255" rx="21.8627" fill="white" fill-opacity="0.1"/>
<rect x="1.39116" y="21.6373" width="102.706" height="43.7255" rx="21.8627" stroke="#171717" stroke-width="1.27451"/>
<path d="M36.8887 35.7012H39.2422V49.5H36.8887V43.6797H30.1211V49.5H27.748V35.7012H30.1211V41.4434H36.8887V35.7012ZM51.8719 44.4219C51.8719 44.7214 51.8523 45.0143 51.8133 45.3008H43.5516C43.7339 46.0365 44.118 46.6257 44.7039 47.0684C45.2964 47.5046 46.006 47.7227 46.8328 47.7227C47.4708 47.7227 48.0633 47.5892 48.6102 47.3223C49.1635 47.0553 49.5932 46.7201 49.8992 46.3164L51.4129 47.6152C50.8855 48.2793 50.215 48.8001 49.4012 49.1777C48.5939 49.5553 47.7182 49.7441 46.7742 49.7441C45.1596 49.7441 43.8152 49.2298 42.741 48.2012C41.6733 47.1725 41.1395 45.8932 41.1395 44.3633C41.1395 43.3737 41.3738 42.4753 41.8426 41.668C42.3113 40.8542 42.9559 40.2161 43.7762 39.7539C44.603 39.2917 45.5177 39.0605 46.5203 39.0605C48.0503 39.0605 49.323 39.5716 50.3387 40.5938C51.3608 41.6094 51.8719 42.8854 51.8719 44.4219ZM46.5008 41.082C45.7781 41.082 45.1466 41.3001 44.6062 41.7363C44.0724 42.1725 43.7143 42.7487 43.532 43.4648H49.4793C49.31 42.7487 48.952 42.1725 48.4051 41.7363C47.8647 41.3001 47.2299 41.082 46.5008 41.082ZM53.525 49.5V35.0957H55.7711V49.5H53.525ZM58.1273 49.5V35.0957H60.3734V49.5H58.1273ZM67.5734 49.7441C66.0174 49.7441 64.7186 49.2331 63.677 48.2109C62.6353 47.1888 62.1145 45.9193 62.1145 44.4023C62.1145 42.8854 62.6353 41.6159 63.677 40.5938C64.7186 39.5716 66.0174 39.0605 67.5734 39.0605C68.5891 39.0605 69.5135 39.2949 70.3469 39.7637C71.1867 40.2259 71.8443 40.8672 72.3195 41.6875C72.7948 42.5013 73.0324 43.4062 73.0324 44.4023C73.0324 45.3984 72.7948 46.3066 72.3195 47.127C71.8443 47.9408 71.1867 48.582 70.3469 49.0508C69.5135 49.513 68.5891 49.7441 67.5734 49.7441ZM65.3176 46.668C65.923 47.2734 66.675 47.5762 67.5734 47.5762C68.4719 47.5762 69.2173 47.2734 69.8098 46.668C70.4087 46.056 70.7082 45.3008 70.7082 44.4023C70.7082 43.4974 70.4087 42.7422 69.8098 42.1367C69.2173 41.5247 68.4719 41.2188 67.5734 41.2188C66.675 41.2188 65.923 41.5247 65.3176 42.1367C64.7121 42.7487 64.4094 43.5039 64.4094 44.4023C64.4094 45.3008 64.7121 46.056 65.3176 46.668ZM75.0371 45.3203L74.9004 39.0996V35.7012H77.2734V39.0996L77.1367 45.3203H75.0371ZM76.0723 49.6562C75.6296 49.6562 75.2617 49.5098 74.9688 49.2168C74.6823 48.9238 74.5391 48.5592 74.5391 48.123C74.5391 47.6803 74.6855 47.3125 74.9785 47.0195C75.2715 46.7266 75.6361 46.5801 76.0723 46.5801C76.5215 46.5801 76.8926 46.7266 77.1855 47.0195C77.485 47.3125 77.6348 47.6803 77.6348 48.123C77.6348 48.5658 77.485 48.9336 77.1855 49.2266C76.8926 49.513 76.5215 49.6562 76.0723 49.6562Z" fill="#171717"/>
<path d="M100.744 20C100.744 17 103.744 11 100.744 2M108.244 23.5C112.577 19.3333 121.444 9.2 122.244 2M111.244 30.5C113.911 30.5 121.044 29.1 128.244 23.5" stroke="#FEB273" stroke-width="4" stroke-linecap="round" stroke-linejoin="round"/>
</svg>
