<svg width="160" height="32" viewBox="0 0 160 32" fill="none" xmlns="http://www.w3.org/2000/svg">
<path d="M23.8912 19.0935C23.5459 19.4282 23.3872 19.9122 23.4659 20.3868L24.6512 26.9468C24.7512 27.5028 24.5165 28.0655 24.0512 28.3868C23.5952 28.7202 22.9885 28.7602 22.4912 28.4935L16.5858 25.4135C16.3805 25.3042 16.1525 25.2455 15.9192 25.2388H15.5578C15.4325 25.2575 15.3099 25.2975 15.1979 25.3588L9.29118 28.4535C8.99918 28.6002 8.66852 28.6522 8.34452 28.6002C7.55518 28.4508 7.02852 27.6988 7.15785 26.9055L8.34452 20.3455C8.42318 19.8668 8.26452 19.3802 7.91918 19.0402L3.10452 14.3735C2.70185 13.9828 2.56185 13.3962 2.74585 12.8668C2.92452 12.3388 3.38052 11.9535 3.93118 11.8668L10.5578 10.9055C11.0619 10.8535 11.5045 10.5468 11.7312 10.0935L14.6512 4.10683C14.7205 3.9735 14.8099 3.85083 14.9179 3.74683L15.0378 3.6535C15.1005 3.58416 15.1725 3.52683 15.2525 3.48016L15.3979 3.42683L15.6245 3.3335H16.1859C16.6872 3.3855 17.1285 3.6855 17.3592 4.1335L20.3179 10.0935C20.5312 10.5295 20.9459 10.8322 21.4245 10.9055L28.0512 11.8668C28.6112 11.9468 29.0792 12.3335 29.2645 12.8668C29.4392 13.4015 29.2885 13.9882 28.8779 14.3735L23.8912 19.0935Z" fill="#FD853A"/>
<path d="M55.8912 19.0935C55.5459 19.4282 55.3872 19.9122 55.4659 20.3868L56.6512 26.9468C56.7512 27.5028 56.5165 28.0655 56.0512 28.3868C55.5952 28.7202 54.9885 28.7602 54.4912 28.4935L48.5858 25.4135C48.3805 25.3042 48.1525 25.2455 47.9192 25.2388H47.5578C47.4325 25.2575 47.3099 25.2975 47.1979 25.3588L41.2912 28.4535C40.9992 28.6002 40.6685 28.6522 40.3445 28.6002C39.5552 28.4508 39.0285 27.6988 39.1579 26.9055L40.3445 20.3455C40.4232 19.8668 40.2645 19.3802 39.9192 19.0402L35.1045 14.3735C34.7019 13.9828 34.5619 13.3962 34.7459 12.8668C34.9245 12.3388 35.3805 11.9535 35.9312 11.8668L42.5578 10.9055C43.0619 10.8535 43.5045 10.5468 43.7312 10.0935L46.6512 4.10683C46.7205 3.9735 46.8099 3.85083 46.9179 3.74683L47.0378 3.6535C47.1005 3.58416 47.1725 3.52683 47.2525 3.48016L47.3979 3.42683L47.6245 3.3335H48.1859C48.6872 3.3855 49.1285 3.6855 49.3592 4.1335L52.3179 10.0935C52.5312 10.5295 52.9459 10.8322 53.4245 10.9055L60.0512 11.8668C60.6112 11.9468 61.0792 12.3335 61.2645 12.8668C61.4392 13.4015 61.2885 13.9882 60.8779 14.3735L55.8912 19.0935Z" fill="#FD853A"/>
<path d="M87.8912 19.0935C87.5459 19.4282 87.3872 19.9122 87.4659 20.3868L88.6512 26.9468C88.7512 27.5028 88.5165 28.0655 88.0512 28.3868C87.5952 28.7202 86.9885 28.7602 86.4912 28.4935L80.5858 25.4135C80.3805 25.3042 80.1525 25.2455 79.9192 25.2388H79.5578C79.4325 25.2575 79.3099 25.2975 79.1979 25.3588L73.2912 28.4535C72.9992 28.6002 72.6685 28.6522 72.3445 28.6002C71.5552 28.4508 71.0285 27.6988 71.1579 26.9055L72.3445 20.3455C72.4232 19.8668 72.2645 19.3802 71.9192 19.0402L67.1045 14.3735C66.7019 13.9828 66.5619 13.3962 66.7459 12.8668C66.9245 12.3388 67.3805 11.9535 67.9312 11.8668L74.5578 10.9055C75.0619 10.8535 75.5045 10.5468 75.7312 10.0935L78.6512 4.10683C78.7205 3.9735 78.8099 3.85083 78.9179 3.74683L79.0378 3.6535C79.1005 3.58416 79.1725 3.52683 79.2525 3.48016L79.3979 3.42683L79.6245 3.3335H80.1859C80.6872 3.3855 81.1285 3.6855 81.3592 4.1335L84.3179 10.0935C84.5312 10.5295 84.9459 10.8322 85.4245 10.9055L92.0512 11.8668C92.6112 11.9468 93.0792 12.3335 93.2645 12.8668C93.4392 13.4015 93.2885 13.9882 92.8779 14.3735L87.8912 19.0935Z" fill="#FD853A"/>
<path d="M119.891 19.0935C119.546 19.4282 119.387 19.9122 119.466 20.3868L120.651 26.9468C120.751 27.5028 120.517 28.0655 120.051 28.3868C119.595 28.7202 118.989 28.7602 118.491 28.4935L112.586 25.4135C112.381 25.3042 112.153 25.2455 111.919 25.2388H111.558C111.433 25.2575 111.31 25.2975 111.198 25.3588L105.291 28.4535C104.999 28.6002 104.669 28.6522 104.345 28.6002C103.555 28.4508 103.029 27.6988 103.158 26.9055L104.345 20.3455C104.423 19.8668 104.265 19.3802 103.919 19.0402L99.1045 14.3735C98.7019 13.9828 98.5619 13.3962 98.7459 12.8668C98.9245 12.3388 99.3805 11.9535 99.9312 11.8668L106.558 10.9055C107.062 10.8535 107.505 10.5468 107.731 10.0935L110.651 4.10683C110.721 3.9735 110.81 3.85083 110.918 3.74683L111.038 3.6535C111.101 3.58416 111.173 3.52683 111.253 3.48016L111.398 3.42683L111.625 3.3335H112.186C112.687 3.3855 113.129 3.6855 113.359 4.1335L116.318 10.0935C116.531 10.5295 116.946 10.8322 117.425 10.9055L124.051 11.8668C124.611 11.9468 125.079 12.3335 125.265 12.8668C125.439 13.4015 125.289 13.9882 124.878 14.3735L119.891 19.0935Z" fill="#FD853A"/>
<path d="M151.891 19.0935C151.546 19.4282 151.387 19.9122 151.466 20.3868L152.651 26.9468C152.751 27.5028 152.517 28.0655 152.051 28.3868C151.595 28.7202 150.989 28.7602 150.491 28.4935L144.586 25.4135C144.381 25.3042 144.153 25.2455 143.919 25.2388H143.558C143.433 25.2575 143.31 25.2975 143.198 25.3588L137.291 28.4535C136.999 28.6002 136.669 28.6522 136.345 28.6002C135.555 28.4508 135.029 27.6988 135.158 26.9055L136.345 20.3455C136.423 19.8668 136.265 19.3802 135.919 19.0402L131.105 14.3735C130.702 13.9828 130.562 13.3962 130.746 12.8668C130.925 12.3388 131.381 11.9535 131.931 11.8668L138.558 10.9055C139.062 10.8535 139.505 10.5468 139.731 10.0935L142.651 4.10683C142.721 3.9735 142.81 3.85083 142.918 3.74683L143.038 3.6535C143.101 3.58416 143.173 3.52683 143.253 3.48016L143.398 3.42683L143.625 3.3335H144.186C144.687 3.3855 145.129 3.6855 145.359 4.1335L148.318 10.0935C148.531 10.5295 148.946 10.8322 149.425 10.9055L156.051 11.8668C156.611 11.9468 157.079 12.3335 157.265 12.8668C157.439 13.4015 157.289 13.9882 156.878 14.3735L151.891 19.0935Z" fill="#FD853A"/>
</svg>
